/* XPM */
static const char *handXPM[] = {
"23 22 8 1",
/* colors */
"  c #040204",
"# c #048284",
"a c #8c8e8c",
"b c None",
"c c #fcfefc",
"d c #fcfefc",
"e c #fcfefc",
"f c #fcfefc",
/* pixels */
"bbbbbbbbbbbbbbbbbbbbbbb",
"bbbbbbbbbbbbbbbbbbbbbbb",
"bbbbbbbbbbbbbbbbbbbbbbb",
"bbbbbbbbbb  bbbbbbbbbbb",
"bbbbbb  b cc   bbbbbbbb",
"bbbbb cc  cc cc bbbbbbb",
"bbbbb cc  cc cc b bbbbb",
"bbbbbb cc cc cc  c bbbb",
"bbbbbb cc cc cc cc bbbb",
"bbbb  # ccccccc cc bbbb",
"bbb cc  cccccccccc bbbb",
"bbb ccc ccccccccc bbbbb",
"bbbb cccccccccccc bbbbb",
"bbbbb ccccccccccc bbbbb",
"bbbbb cccccccccc bbbbbb",
"bbbbbb ccccccccc bbbbbb",
"bbbbbbb ccccccc bbbbbbb",
"bbbbbbbb cccccc bbbbbbb",
"bbbbbbbb cccccc bbbbbbb",
"bbbbbbbbbbbbbbbbbbbbbbb",
"bbbbbbbbbbbbbbbbbbbbbbb",
"bbbbbbbbbbbbbbbbbbbbbbb",
};
