/* XPM */
static const char* const open_xpm[]={
    "16 16 6 1",
    ". c None",
    "b c #ffff00",
    "d c #000000",
    "* c #999999",
    "c c #cccccc",
    "a c #ffffff",
    "................",
    "................",
    "...*****........",
    "..*aaaaa*.......",
    ".*abcbcba******.",
    ".*acbcbcaaaaaa*d",
    ".*abcbcbcbcbcb*d",
    "*************b*d",
    "*aaaaaaaaaa**c*d",
    "*abcbcbcbcbbd**d",
    ".*abcbcbcbcbcd*d",
    ".*acbcbcbcbcbd*d",
    "..*acbcbcbcbb*dd",
    "..*************d",
    "...ddddddddddddd",
    "................"};
                                                                                                                                     
