/* XPM */
static const char *selectXPM[] = {
"22 22 2 1",
"       c None",
".      c #000000000000",
"                      ",
"      .               ",
"      ..              ",
"      ...             ",
"      ....            ",
"      .....           ",
"      ......          ",
"      .......         ",
"      ........        ",
"      .........       ",
"      ..........      ",
"      ...........     ",
"      .........       ",
"      .......         ",
"      .... ...        ",
"      ..   ...        ",
"            ...       ",
"            ...       ",
"             ...      ",
"             ...      ",
"                      ",
"                      "};
