/* XPM */
static const char * vector_xpm[] = {
/* width height ncolors chars_per_pixel */
"20 18 3 1",
/* colors */
"  c #0402f4",
". c #fcfefc",
"# c #0f0f0f",
/* pixels */
"..################..",
".#................#.",
"#..................#",
"#.......  .........#",
"#.......  .........#",
"#.......  ....  ...#",
"#.......  ....  ...#",
"#.......  ....  ...#",
"#.......  ....  ...#",
"#.                .#",
"#.                .#",
"#...  .....  ......#",
"#...  .....  ......#",
"#...  .....  ......#",
"#...  .............#",
"#..................#",
".#................#.",
"..################.."};

