/* XPM */
static const char * vector_xpm[] = {
/* width height ncolors chars_per_pixel */
"20 18 4 1",
/* colors */
"  c #fff300",
". c #1c00ff",
"x c #fcfefc",
"# c #0f0f0f",
/* pixels */
"xx################xx",
"x#................#x",
"#..................#",
"#..................#",
"#..................#",
"#...... ...........#",
"#.....   ..........#",
"#.....   ..........#",
"#....     ...  ....#",
"#....     ..   ....#",
"#...            ...#",
"#...            ...#",
"#..              ..#",
"#..              ..#",
"#..................#",
"#..................#",
"x#................#x",
"xx################xx"};

