/* XPM */
static const char *type_image_xpm[] = {
/* width height ncolors chars_per_pixel */
"20 18 21 1",
/* colors */
"  c #0402fc",
". c #fcfefc",
"# c #0f0f0f",
"a c #fc0204",
"b c #047204",
"c c #bcbefc",
"d c #8c7e4c",
"e c #4c7e8c",
"f c #248224",
"g c #1c1efc",
"h c #6caa6c",
"i c #fc1e1c",
"j c #fcbebc",
"k c #e45a4c",
"l c #4c5ae4",
"m c #348e34",
"n c #c4dac4",
"o c #3432fc",
"p c #fc3234",
"q c #fc6664",
"r c #6466fc",
/* pixels */
"..################..",
".#.....nhffhn.....#.",
"#.....nmbbbbmn.....#",
"#.....hbbbbbbh.....#",
"#.....fbbbbbbf.....#",
"#.....fbbbbbbf.....#",
"#.....hbbbbbbh.....#",
"#.....nfbbbbmn.....#",
"#..jqiikdffelggrc..#",
"#.jpaaaapjco    oc.#",
"#.qaaaaaaqr      r.#",
"#.iaaaaaaig      g.#",
"#.iaaaaaaig      g.#",
"#.qaaaaaaqr      r.#",
"#.jpaaaapjco    oc.#",
"#..jqiiqj..crggrc..#",
".#................#.",
"..################.."};
