/* XPM */
static const char *zoomBoxXPM[] = {
"22 22 3 1",
"       c None",
".      c #000000000000",
":      c #FFF000000000",
"                      ",
"                      ",
"  ::::::::::::        ",
"  ::::::::::::.       ",
"  ::    ....::...     ",
"  ::   ...  :: ...    ",
"  ::  ..    ::   ..   ",
"  :: ..     ::   ..   ",
"  :: ..     ::    ..  ",
"  ::::::::::::    ..  ",
"  ::::::::::::    ..  ",
"     ..           ..  ",
"     ..           ..  ",
"      ..         ..   ",
"      ..         ..   ",
"     .....     ...    ",
"    .............     ",
"   .....  .....       ",
"   ....               ",
"    ..                ",
"                      ",
"                      "};
