/* XPM */
static const char *gridsXPM[] = {
"22 22 3 1",
"       c None",
".      c #000000000000",
":      c #FFF000000000",
"                      ",
"                      ",
"      .        .      ",
"      .        .      ",
"      .        .      ",
"      .        .      ",
"      .        .      ",
"  ..................  ",
"      .        .      ",
"      .        .      ",
"      .        .      ",
"      .        .      ",
"      .        .      ",
"      .        .      ",
"  ..................  ",
"      .        .      ",
"      .        .      ",
"      .        .      ",
"      .        .      ",
"      .        .      ",
"                      ",
"                      "};
