/* XPM */
static char * Sans18_xpm[] = {
"120 30 157 2",
"  	c None",
". 	c #FFFFFF",
"+ 	c #DEDEDE",
"@ 	c #6C6C6C",
"# 	c #282828",
"$ 	c #090909",
"% 	c #050505",
"& 	c #191919",
"* 	c #424242",
"= 	c #7F7F7F",
"- 	c #D1D1D1",
"; 	c #FDFDFD",
"> 	c #1D1D1D",
", 	c #E8E8E8",
"' 	c #B6B6B6",
") 	c #000000",
"! 	c #B7B7B7",
"~ 	c #3B3B3B",
"{ 	c #0A0A0A",
"] 	c #3E3E3E",
"^ 	c #BBBBBB",
"/ 	c #C2C2C2",
"( 	c #181818",
"_ 	c #898989",
": 	c #DCDCDC",
"< 	c #FBFBFB",
"[ 	c #FEFEFE",
"} 	c #F9F9F9",
"| 	c #C0C0C0",
"1 	c #5E5E5E",
"2 	c #BEBEBE",
"3 	c #454545",
"4 	c #F3F3F3",
"5 	c #A5A5A5",
"6 	c #111111",
"7 	c #B2B2B2",
"8 	c #222222",
"9 	c #B4B4B4",
"0 	c #F5F5F5",
"a 	c #AFAFAF",
"b 	c #2F2F2F",
"c 	c #656565",
"d 	c #9E9E9E",
"e 	c #373737",
"f 	c #B0B0B0",
"g 	c #C8C8C8",
"h 	c #C4C4C4",
"i 	c #303030",
"j 	c #F8F8F8",
"k 	c #BFBFBF",
"l 	c #5C5C5C",
"m 	c #1E1E1E",
"n 	c #272727",
"o 	c #FAFAFA",
"p 	c #1F1F1F",
"q 	c #040404",
"r 	c #9D9D9D",
"s 	c #7A7A7A",
"t 	c #212121",
"u 	c #151515",
"v 	c #525252",
"w 	c #F0F0F0",
"x 	c #060606",
"y 	c #343434",
"z 	c #ABABAB",
"A 	c #636363",
"B 	c #C7C7C7",
"C 	c #ECECEC",
"D 	c #6E6E6E",
"E 	c #959595",
"F 	c #6B6B6B",
"G 	c #999999",
"H 	c #E9E9E9",
"I 	c #D0D0D0",
"J 	c #353535",
"K 	c #707070",
"L 	c #858585",
"M 	c #515151",
"N 	c #B3B3B3",
"O 	c #505050",
"P 	c #232323",
"Q 	c #D4D4D4",
"R 	c #262626",
"S 	c #5D5D5D",
"T 	c #ADADAD",
"U 	c #E7E7E7",
"V 	c #E6E6E6",
"W 	c #242424",
"X 	c #BABABA",
"Y 	c #D3D3D3",
"Z 	c #4F4F4F",
"` 	c #0B0B0B",
" .	c #5A5A5A",
"..	c #A9A9A9",
"+.	c #A2A2A2",
"@.	c #A8A8A8",
"#.	c #F4F4F4",
"$.	c #1A1A1A",
"%.	c #A3A3A3",
"&.	c #F6F6F6",
"*.	c #989898",
"=.	c #444444",
"-.	c #1C1C1C",
";.	c #555555",
">.	c #9B9B9B",
",.	c #030303",
"'.	c #D5D5D5",
").	c #838383",
"!.	c #C5C5C5",
"~.	c #818181",
"{.	c #E1E1E1",
"].	c #4A4A4A",
"^.	c #2A2A2A",
"/.	c #171717",
"(.	c #070707",
"_.	c #AAAAAA",
":.	c #4C4C4C",
"<.	c #696969",
"[.	c #909090",
"}.	c #DADADA",
"|.	c #5B5B5B",
"1.	c #ACACAC",
"2.	c #A4A4A4",
"3.	c #F1F1F1",
"4.	c #F2F2F2",
"5.	c #131313",
"6.	c #797979",
"7.	c #474747",
"8.	c #161616",
"9.	c #919191",
"0.	c #DFDFDF",
"a.	c #EEEEEE",
"b.	c #B9B9B9",
"c.	c #B8B8B8",
"d.	c #F7F7F7",
"e.	c #BDBDBD",
"f.	c #EFEFEF",
"g.	c #C9C9C9",
"h.	c #3F3F3F",
"i.	c #0E0E0E",
"j.	c #666666",
"k.	c #C1C1C1",
"l.	c #D6D6D6",
"m.	c #FCFCFC",
"n.	c #D2D2D2",
"o.	c #757575",
"p.	c #D7D7D7",
"q.	c #9C9C9C",
"r.	c #D8D8D8",
"s.	c #B5B5B5",
"t.	c #B1B1B1",
"u.	c #080808",
"v.	c #202020",
"w.	c #979797",
"x.	c #545454",
"y.	c #1B1B1B",
"z.	c #767676",
"                                                                                                                                                                                                                                                ",
"                                                                                                                                                                                                                                                ",
"                                                                                                                                                                                                                                                ",
"                                                                                                                                                                                                                                                ",
"                                                                                                                                                                                                                                                ",
"                                                                                                                                                                                                                                                ",
"                                                                                                                                                                                                                                                ",
"                                                                                                                                                                                                                                                ",
"                                                          . . . . . . . . .                                                                   . . .       . . .           . . . . . .                                                           ",
"                                                        . + @ # $ % & * = - .                                                                 ; > ,     . ' ) .         . ! ~ $ { ] ^ .                                                         ",
"                                                      . / ( _ : < [ ; } | 1 .                                                               . 2 3 . . 4 5 6 ) .       . 7 8 9 0 4 a > 9 .                                                       ",
"                                                      . b ' .           . . .     . . . . . .     . . . . . . . .       . . . . . . .       . c d . . $ e f ) .       . b g .     . h i .                                                       ",
"                                                      . % j                     . k l m % n d .   . ) o = p q p r .   . j s t % u v ^ .     o & w   . . . . ) .       . % }         } x .                                                       ",
"                                                      . y z . .                 . A B 0 ; C D E . . ) F G H < I J g . . A K H < : L M .   . N O .         . ) .       . P 2 .     . k P .                                                       ",
"                                                      . Q R S T U . . .         . . .     . V W . . ) X .     . Y Z . . ` 0 .     . . .   .  ....         . ) .       . +.( @.4 #.T $.%..                                                       ",
"                                                        . &.*.=.$ -.;.>.&..         . . . . ; ,.. . ) .         ; % . . ( '.. . .         0 ( &.          . ) .         . ).) ) ) ) L .                                                         ",
"                                                            . . } !.~.# R V .   . {.).].^./.(.) . . ) .         . ) . . _.( :.<.[.}..   . @.|..           . ) .       . 1.u 2.3.4.%.5._..                                                       ",
"                                                                    . [ 6.7.. . N 8.9.0.U a.} ) . . ) .         . ) .   . U 5 = M { >.. . Z 9 .           . ) .       . W b..     . c.W .                                                       ",
"                                                                      . d.$ . . P c..       . ) . . ) .         . ) .       . . . e.u . f.& o             . ) .       . % }         j x .                                                       ",
"                                                      . . .           . g.h.. . % d..     . . ) [ . ) .         . ) . . . .     . } i.. r j..             . ) .       . b k..     . ^ i .                                                       ",
"                                                      . = 2.l.3.; m., 1.e n.. . * o.f.&.p.q.] ) : . ) .         . ) . . M ).r.< C 6.j.. =.k .             . ) .       . s.m t.#.#...& ! .                                                       ",
"                                                      . . ' l P u.x # o.H .   . V ;.i.% v.S k.w.x.} ) .         . ) . . ^ M 8.,.y.z.j , > ;               . ) .         . e.h.{ { h.k .                                                         ",
"                                                          . . . . . . . .       . . . . . . . . . . . .         . . .   . . . . . . . . . .               . . .           . . . . . .                                                           ",
"                                                                                                                                                                                                                                                ",
"                                                                                                                                                                                                                                                ",
"                                                                                                                                                                                                                                                ",
"                                                                                                                                                                                                                                                ",
"                                                                                                                                                                                                                                                ",
"                                                                                                                                                                                                                                                ",
"                                                                                                                                                                                                                                                "};
